<svg xmlns="http://www.w3.org/2000/svg" width="29.869" height="31.214" viewBox="0 0 29.869 31.214"><path d="M13.788,5.366,17.45.794A14.59,14.59,0,0,0,14.935.577,15.145,15.145,0,0,0,0,15.9,15.129,15.129,0,0,0,14.935,31.214,15.129,15.129,0,0,0,29.869,15.9a15.583,15.583,0,0,0-1.191-6l-3.6,3.91a10.929,10.929,0,0,1,.2,2.094A10.475,10.475,0,0,1,14.935,26.5,10.458,10.458,0,0,1,4.609,15.914,10.558,10.558,0,0,1,12.427,5.631,10.222,10.222,0,0,1,13.8,5.38m.86,8.181L23.629,3.278,20.245,1.514l-5.6,6.4Zm9.512-2.118L28.8,5.732V0L22.4,8.234Z" fill="#fff"/></svg>