<svg xmlns="http://www.w3.org/2000/svg" width="16.615" height="17.893" viewBox="0 0 16.615 17.893"><g transform="translate(-47.994 -32)"><path d="M159.214,33.3a4.267,4.267,0,0,0-6.128-.008,4.227,4.227,0,0,0-1.074,3.226c.177,2.441,2.035,4.427,4.141,4.427s3.96-1.985,4.141-4.426A4.215,4.215,0,0,0,159.214,33.3Z" transform="translate(-99.851)" fill="#fff"/><path d="M63.331,295.668H49.273a1.238,1.238,0,0,1-.967-.445,1.41,1.41,0,0,1-.287-1.163,6.838,6.838,0,0,1,3.043-4.544,9.8,9.8,0,0,1,10.48,0,6.837,6.837,0,0,1,3.043,4.543,1.41,1.41,0,0,1-.287,1.163A1.238,1.238,0,0,1,63.331,295.668Z" transform="translate(0 -245.776)" fill="#fff"/></g></svg>